<?xml version="1.0" standalone="no"?><!DOCTYPE svg PUBLIC "-//W3C//DTD SVG 1.1//EN" "http://www.w3.org/Graphics/SVG/1.1/DTD/svg11.dtd"><svg t="1565359529126" class="icon" viewBox="0 0 1025 1024" version="1.1" xmlns="http://www.w3.org/2000/svg" p-id="2772" xmlns:xlink="http://www.w3.org/1999/xlink" width="128.125" height="128"><defs><style type="text/css"></style></defs><path d="M767.593216 447.941029l-448.087369 0 0-96.01938c0-113.019358 78.950837-192.03876 192.037736-192.03876 105.144639 0 189.097636 97.520642 192.032619 128.027886 0 35.381486 28.630411 64.00985 64.017013 64.00985 35.377392 0 64.00985-28.628364 64.00985-64.00985 0-98.772206-146.468749-256.048609-320.059483-256.048609-182.470388 0-320.061529 137.585001-320.061529 320.058459l0 108.897283c-39.381781 17.563847-64.010873 53.385375-64.010873 108.022314l0 302.303245c0 80.205471 52.316992 120.900217 128.02584 120.900217l512.095172 0c75.701684 0 128.024816-40.694746 128.024816-120.900217L895.617009 568.841246C895.618033 488.637822 843.2949 447.941029 767.593216 447.941029zM543.547997 730.119992l0 105.20604c0 20.630843-14.377118 37.508018-32.00339 37.508018-17.752144 0-32.011577-16.877175-32.011577-37.508018L479.53303 730.119992c-37.255249-13.255521-64.004733-48.385261-64.004733-90.141227 0-53.012874 42.874493-96.018356 96.01631-96.018356 53.011851 0 96.02245 43.005483 96.02245 96.018356C607.566033 681.733708 580.740821 716.864471 543.547997 730.119992z" p-id="2773" fill="#e6e6e6"></path></svg>